<mxfile host="app.diagrams.net" modified="2024-03-24T19:25:30.998Z" agent="Mozilla/5.0 (Windows NT 10.0; Win64; x64) AppleWebKit/537.36 (KHTML, like Gecko) Chrome/122.0.0.0 Safari/537.36" etag="35O1awKwz5e654W5mrvP" version="21.3.8" type="device">
  <diagram name="Page-1" id="ff44883e-f642-bcb2-894b-16b3d25a3f0b">
    <mxGraphModel dx="1456" dy="678" grid="1" gridSize="10" guides="1" tooltips="1" connect="1" arrows="1" fold="1" page="1" pageScale="1.5" pageWidth="1169" pageHeight="826" background="none" math="0" shadow="0">
      <root>
        <mxCell id="0" style=";html=1;" />
        <mxCell id="1" style=";html=1;" parent="0" />
        <mxCell id="pyP9cMPiVNIEUNAZ6Pnh-1" value="" style="rounded=0;whiteSpace=wrap;html=1;" vertex="1" parent="1">
          <mxGeometry x="20" y="30" width="120" height="90" as="geometry" />
        </mxCell>
        <mxCell id="pyP9cMPiVNIEUNAZ6Pnh-2" value="Project Description" style="rounded=0;whiteSpace=wrap;html=1;" vertex="1" parent="1">
          <mxGeometry x="20" y="30" width="120" height="30" as="geometry" />
        </mxCell>
        <mxCell id="pyP9cMPiVNIEUNAZ6Pnh-3" value="1" style="rounded=0;whiteSpace=wrap;html=1;" vertex="1" parent="1">
          <mxGeometry x="20" y="60" width="30" height="30" as="geometry" />
        </mxCell>
        <mxCell id="pyP9cMPiVNIEUNAZ6Pnh-5" value="5" style="whiteSpace=wrap;html=1;aspect=fixed;" vertex="1" parent="1">
          <mxGeometry x="49.5" y="60" width="30" height="30" as="geometry" />
        </mxCell>
        <mxCell id="pyP9cMPiVNIEUNAZ6Pnh-6" value="10" style="whiteSpace=wrap;html=1;aspect=fixed;" vertex="1" parent="1">
          <mxGeometry x="80" y="60" width="30" height="30" as="geometry" />
        </mxCell>
        <mxCell id="pyP9cMPiVNIEUNAZ6Pnh-7" value="15" style="whiteSpace=wrap;html=1;aspect=fixed;" vertex="1" parent="1">
          <mxGeometry x="110" y="60" width="30" height="30" as="geometry" />
        </mxCell>
        <mxCell id="pyP9cMPiVNIEUNAZ6Pnh-9" value="" style="rounded=0;whiteSpace=wrap;html=1;" vertex="1" parent="1">
          <mxGeometry x="20" y="90" width="60" height="30" as="geometry" />
        </mxCell>
        <mxCell id="pyP9cMPiVNIEUNAZ6Pnh-10" value="" style="rounded=0;whiteSpace=wrap;html=1;" vertex="1" parent="1">
          <mxGeometry x="80" y="90" width="60" height="30" as="geometry" />
        </mxCell>
        <mxCell id="pyP9cMPiVNIEUNAZ6Pnh-203" value="" style="rounded=0;whiteSpace=wrap;html=1;" vertex="1" parent="1">
          <mxGeometry x="830" y="10" width="120" height="90" as="geometry" />
        </mxCell>
        <mxCell id="pyP9cMPiVNIEUNAZ6Pnh-204" value="" style="rounded=0;whiteSpace=wrap;html=1;" vertex="1" parent="1">
          <mxGeometry x="830" y="10" width="120" height="30" as="geometry" />
        </mxCell>
        <mxCell id="pyP9cMPiVNIEUNAZ6Pnh-205" value="" style="rounded=0;whiteSpace=wrap;html=1;" vertex="1" parent="1">
          <mxGeometry x="830" y="40" width="30" height="30" as="geometry" />
        </mxCell>
        <mxCell id="pyP9cMPiVNIEUNAZ6Pnh-206" value="" style="whiteSpace=wrap;html=1;aspect=fixed;" vertex="1" parent="1">
          <mxGeometry x="859.5" y="40" width="30" height="30" as="geometry" />
        </mxCell>
        <mxCell id="pyP9cMPiVNIEUNAZ6Pnh-207" value="" style="whiteSpace=wrap;html=1;aspect=fixed;" vertex="1" parent="1">
          <mxGeometry x="890" y="40" width="30" height="30" as="geometry" />
        </mxCell>
        <mxCell id="pyP9cMPiVNIEUNAZ6Pnh-208" value="" style="whiteSpace=wrap;html=1;aspect=fixed;" vertex="1" parent="1">
          <mxGeometry x="920" y="40" width="30" height="30" as="geometry" />
        </mxCell>
        <mxCell id="pyP9cMPiVNIEUNAZ6Pnh-209" value="" style="rounded=0;whiteSpace=wrap;html=1;" vertex="1" parent="1">
          <mxGeometry x="830" y="70" width="60" height="30" as="geometry" />
        </mxCell>
        <mxCell id="pyP9cMPiVNIEUNAZ6Pnh-210" value="" style="rounded=0;whiteSpace=wrap;html=1;" vertex="1" parent="1">
          <mxGeometry x="890" y="70" width="60" height="30" as="geometry" />
        </mxCell>
      </root>
    </mxGraphModel>
  </diagram>
</mxfile>
